<svg width="97" height="97" xmlns="http://www.w3.org/2000/svg" xmlns:xlink="http://www.w3.org/1999/xlink" xml:space="preserve" overflow="hidden"><g transform="translate(-92 -309)"><g><g><g><g><path d="M170.656 379.225 159.887 379.225C159.183 379.225 158.616 378.657 158.616 377.954L158.616 367.185 161.157 367.185 161.157 376.683 170.656 376.683 170.656 379.225Z" fill="#E31837" fill-rule="nonzero" fill-opacity="1"/><path d="M141 406C114.53 406 93 384.47 93 358 93 331.53 114.53 310 141 310 167.47 310 189 331.53 189 358 189 384.47 167.47 406 141 406ZM141 313.389C116.403 313.389 96.3892 333.403 96.3892 358 96.3892 382.597 116.403 402.611 141 402.611 165.597 402.611 185.611 382.597 185.611 358 185.611 333.403 165.597 313.389 141 313.389Z" fill="#E31837" fill-rule="nonzero" fill-opacity="1"/><path d="M129.112 348.451 119.885 348.451C119.182 348.451 118.614 347.883 118.614 347.18L118.614 337.953C118.614 337.249 119.182 336.682 119.885 336.682L129.112 336.682C129.816 336.682 130.383 337.249 130.383 337.953L130.383 347.18C130.383 347.883 129.816 348.451 129.112 348.451ZM121.156 345.909 127.841 345.909 127.841 339.224 121.156 339.224 121.156 345.909Z" fill="#2AACE2" fill-rule="nonzero" fill-opacity="1"/><path d="M138.348 340.757 135.272 340.757C134.569 340.757 134.001 340.19 134.001 339.486 134.001 338.783 134.569 338.215 135.272 338.215L138.348 338.215C139.051 338.215 139.619 338.783 139.619 339.486 139.619 340.19 139.051 340.757 138.348 340.757Z" fill="#E31837" fill-rule="nonzero" fill-opacity="1"/><path d="M147.575 340.757 144.499 340.757C143.796 340.757 143.228 340.19 143.228 339.486 143.228 338.783 143.796 338.215 144.499 338.215L147.575 338.215C148.278 338.215 148.846 338.783 148.846 339.486 148.846 340.19 148.278 340.757 147.575 340.757Z" fill="#E31837" fill-rule="nonzero" fill-opacity="1"/><path d="M156.811 340.757 153.735 340.757C153.032 340.757 152.464 340.19 152.464 339.486 152.464 338.783 153.032 338.215 153.735 338.215L156.811 338.215C157.514 338.215 158.082 338.783 158.082 339.486 158.082 340.19 157.514 340.757 156.811 340.757Z" fill="#E31837" fill-rule="nonzero" fill-opacity="1"/><path d="M156.811 346.909 149.117 346.909C148.414 346.909 147.846 346.341 147.846 345.638 147.846 344.935 148.414 344.367 149.117 344.367L156.811 344.367C157.514 344.367 158.082 344.935 158.082 345.638 158.082 346.341 157.514 346.909 156.811 346.909Z" fill="#E31837" fill-rule="nonzero" fill-opacity="1"/><path d="M142.957 346.909 135.264 346.909C134.56 346.909 133.993 346.341 133.993 345.638 133.993 344.935 134.56 344.367 135.264 344.367L142.957 344.367C143.661 344.367 144.228 344.935 144.228 345.638 144.228 346.341 143.661 346.909 142.957 346.909Z" fill="#E31837" fill-rule="nonzero" fill-opacity="1"/><path d="M172.139 365.643 169.173 365.643 169.173 333.335C169.173 332.454 168.461 331.742 167.58 331.742L115.267 331.742C114.386 331.742 113.674 332.454 113.674 333.335L113.674 354.873 110.709 354.873 110.709 333.335C110.709 330.818 112.751 328.776 115.267 328.776L167.58 328.776C170.097 328.776 172.139 330.818 172.139 333.335L172.139 365.643Z" fill="#2AACE2" fill-rule="nonzero" fill-opacity="1"/><path d="M159.887 389.994C153.244 389.994 147.846 384.589 147.846 377.954 147.846 371.32 153.252 365.914 159.887 365.914 166.521 365.914 171.927 371.32 171.927 377.954 171.927 384.589 166.521 389.994 159.887 389.994ZM159.887 368.456C154.65 368.456 150.388 372.718 150.388 377.954 150.388 383.19 154.65 387.452 159.887 387.452 165.123 387.452 169.385 383.19 169.385 377.954 169.385 372.718 165.123 368.456 159.887 368.456Z" fill="#2AACE2" fill-rule="nonzero" fill-opacity="1"/><path d="M118.343 390.206 112.192 390.206C111.37 390.206 110.709 389.545 110.709 388.723L110.709 359.491C110.709 358.669 111.37 358.008 112.192 358.008L118.343 358.008C119.165 358.008 119.826 358.669 119.826 359.491L119.826 388.723C119.826 389.545 119.165 390.206 118.343 390.206ZM113.674 387.241 116.86 387.241 116.86 360.974 113.674 360.974 113.674 387.241Z" fill="#2AACE2" fill-rule="nonzero" fill-opacity="1"/><path d="M130.654 390.206 124.503 390.206C123.681 390.206 123.02 389.545 123.02 388.723L123.02 354.873C123.02 354.052 123.681 353.391 124.503 353.391L130.654 353.391C131.476 353.391 132.137 354.052 132.137 354.873L132.137 388.723C132.137 389.545 131.476 390.206 130.654 390.206ZM125.986 387.241 129.172 387.241 129.172 356.356 125.986 356.356 125.986 387.241Z" fill="#E31837" fill-rule="nonzero" fill-opacity="1"/><path d="M142.957 390.206 136.806 390.206C135.984 390.206 135.323 389.545 135.323 388.723L135.323 362.567C135.323 361.745 135.984 361.084 136.806 361.084L142.957 361.084C143.779 361.084 144.44 361.745 144.44 362.567L144.44 388.723C144.44 389.545 143.779 390.206 142.957 390.206ZM138.289 387.241 141.474 387.241 141.474 364.05 138.289 364.05 138.289 387.241Z" fill="#2AACE2" fill-rule="nonzero" fill-opacity="1"/></g></g></g></g></g></svg>