<svg width="97" height="97" xmlns="http://www.w3.org/2000/svg" xmlns:xlink="http://www.w3.org/1999/xlink" xml:space="preserve" overflow="hidden"><g transform="translate(-356 -232)"><g><g><g><g><path d="M405 329C378.53 329 357 307.47 357 281 357 254.53 378.53 233 405 233 431.47 233 453 254.53 453 281 453 307.47 431.47 329 405 329ZM405 236.389C380.403 236.389 360.389 256.403 360.389 281 360.389 305.597 380.403 325.611 405 325.611 429.597 325.611 449.611 305.597 449.611 281 449.611 256.403 429.597 236.389 405 236.389Z" fill="#E31837" fill-rule="nonzero" fill-opacity="1"/><path d="M404.517 272.959C400.17 272.959 396.688 276.518 396.688 280.788 396.688 285.059 400.247 288.617 404.517 288.617 408.787 288.617 412.346 285.059 412.346 280.788 412.346 276.518 408.864 272.959 404.517 272.959ZM404.517 286.008C401.67 286.008 399.298 283.711 399.298 280.788 399.298 277.865 401.594 275.569 404.517 275.569 407.44 275.569 409.736 277.865 409.736 280.788 409.736 283.711 407.364 286.008 404.517 286.008Z" fill="#2AACE2" fill-rule="nonzero" fill-opacity="1"/><path d="M421.523 285.457C422.946 285.296 423.971 284.11 423.971 282.686L423.971 282.051 432.588 282.051C433.139 284.025 435.037 285.533 437.172 285.533 439.858 285.533 441.993 283.398 441.993 280.712 441.993 278.026 439.858 275.891 437.172 275.891 434.961 275.891 433.139 277.39 432.588 279.373L423.971 279.373 423.971 278.738C423.971 277.314 422.946 276.128 421.523 275.967L417.566 275.569C417.489 275.408 417.405 275.171 417.328 275.018L419.387 272.485 426.428 272.485C426.979 272.485 427.538 272.086 427.691 271.612L429.428 266.791 432.588 266.791C433.139 268.765 435.037 270.273 437.172 270.273 439.858 270.273 441.993 268.138 441.993 265.452 441.993 262.766 439.858 260.631 437.172 260.631 434.961 260.631 433.139 262.13 432.588 264.113L428.479 264.113C427.928 264.113 427.369 264.511 427.216 264.986L425.479 269.807 420.336 269.807C420.26 269.256 420.023 268.697 419.625 268.223L416.854 265.452C415.829 264.427 414.244 264.342 413.134 265.291L410.05 267.824C409.889 267.748 409.652 267.663 409.499 267.587L409.101 263.63C408.94 262.207 407.754 261.181 406.33 261.181L402.458 261.181C401.035 261.181 399.848 262.207 399.687 263.63L399.289 267.587C399.128 267.663 398.891 267.748 398.738 267.824L395.815 265.452C394.705 264.579 393.129 264.664 392.095 265.613L389.325 268.384C388.85 268.782 388.689 269.333 388.613 269.968L383.47 269.968 381.733 265.147C381.572 264.596 381.097 264.198 380.547 264.198L376.437 264.198C375.887 262.224 373.989 260.715 371.853 260.715 369.167 260.715 367.032 262.851 367.032 265.537 367.032 268.223 369.167 270.358 371.853 270.358 374.065 270.358 375.887 268.858 376.437 266.875L379.598 266.875 381.335 271.697C381.496 272.247 382.046 272.569 382.597 272.569L389.638 272.569 391.697 275.103C391.621 275.264 391.536 275.501 391.46 275.653L387.503 276.052C386.08 276.213 385.054 277.399 385.054 278.822L385.054 279.458 376.437 279.458C375.887 277.484 373.989 275.975 371.853 275.975 369.167 275.975 367.032 278.111 367.032 280.797 367.032 283.483 369.167 285.618 371.853 285.618 374.065 285.618 375.887 284.118 376.437 282.135L385.054 282.135 385.054 282.771C385.054 284.194 386.08 285.381 387.503 285.542L391.46 285.94C391.536 286.101 391.621 286.338 391.697 286.491L389.638 289.024 382.597 289.024C382.046 289.024 381.487 289.422 381.335 289.897L379.598 294.718 376.437 294.718C375.887 292.744 373.989 291.235 371.853 291.235 369.167 291.235 367.032 293.371 367.032 296.057 367.032 298.743 369.167 300.878 371.853 300.878 374.065 300.878 375.887 299.378 376.437 297.395L380.547 297.395C381.097 297.395 381.657 296.997 381.809 296.523L383.546 291.702 388.689 291.702C388.766 292.252 389.003 292.811 389.401 293.286L392.172 296.057C393.197 297.082 394.781 297.167 395.891 296.218L398.976 293.684C399.137 293.76 399.374 293.845 399.526 293.921L399.925 297.878C400.086 299.302 401.272 300.327 402.695 300.327L406.568 300.327C407.991 300.327 409.177 299.302 409.338 297.878L409.736 293.921C409.897 293.845 410.135 293.76 410.287 293.684L413.371 296.218C414.481 297.09 416.057 297.006 417.091 296.057L419.862 293.286C420.26 292.888 420.497 292.337 420.574 291.702L425.717 291.702 427.454 296.523C427.615 297.073 428.165 297.395 428.716 297.395L432.826 297.395C433.376 299.37 435.274 300.878 437.41 300.878 440.095 300.878 442.231 298.743 442.231 296.057 442.231 293.371 440.095 291.235 437.41 291.235 435.198 291.235 433.376 292.735 432.826 294.718L429.665 294.718 427.928 289.897C427.767 289.346 427.216 289.024 426.666 289.024L419.625 289.024 417.566 286.491C417.642 286.33 417.727 286.092 417.803 285.94L421.523 285.465ZM437.257 278.653C438.443 278.653 439.392 279.602 439.392 280.788 439.392 281.974 438.443 282.923 437.257 282.923 436.071 282.923 435.122 281.974 435.122 280.788 435.122 279.602 436.071 278.653 437.257 278.653ZM437.257 263.393C438.443 263.393 439.392 264.342 439.392 265.528 439.392 266.714 438.443 267.663 437.257 267.663 436.071 267.663 435.122 266.714 435.122 265.528 435.122 264.342 436.071 263.393 437.257 263.393ZM371.777 267.74C370.591 267.74 369.642 266.791 369.642 265.604 369.642 264.418 370.591 263.393 371.777 263.393 372.963 263.393 373.912 264.342 373.912 265.528 373.912 266.714 372.963 267.74 371.777 267.74ZM371.777 282.923C370.591 282.923 369.642 281.974 369.642 280.788 369.642 279.602 370.591 278.653 371.777 278.653 372.963 278.653 373.912 279.602 373.912 280.788 373.912 281.974 372.963 282.923 371.777 282.923ZM371.777 298.183C370.591 298.183 369.642 297.234 369.642 296.048 369.642 294.862 370.591 293.913 371.777 293.913 372.963 293.913 373.912 294.862 373.912 296.048 373.912 297.234 372.963 298.183 371.777 298.183ZM437.257 293.837C438.443 293.837 439.392 294.786 439.392 295.972 439.392 297.158 438.443 298.107 437.257 298.107 436.071 298.107 435.122 297.158 435.122 295.972 435.122 294.862 436.071 293.837 437.257 293.837ZM414.88 287.668 417.727 291.303 414.88 294.074 411.321 291.227C410.77 290.829 410.058 290.676 409.423 290.99 409.025 291.227 408.55 291.388 408.076 291.54 407.44 291.778 406.966 292.328 406.889 293.04L406.339 297.624 402.382 297.548 401.907 293.04C401.831 292.328 401.357 291.778 400.721 291.54 400.247 291.38 399.848 291.227 399.374 290.99 399.137 290.829 398.899 290.829 398.586 290.829 398.188 290.829 397.798 290.99 397.476 291.227L393.841 294.074 391.07 291.227 393.917 287.668C394.315 287.118 394.392 286.406 394.154 285.77 393.917 285.372 393.756 284.898 393.604 284.423 393.366 283.788 392.816 283.313 392.104 283.237L387.52 282.686 387.596 278.729 392.104 278.255C392.816 278.178 393.366 277.704 393.604 277.068 393.765 276.594 393.917 276.196 394.154 275.721 394.468 275.086 394.392 274.374 393.917 273.823L391.07 270.188 393.917 267.418 397.4 270.265C397.95 270.739 398.662 270.815 399.298 270.502 399.696 270.265 400.17 270.104 400.645 269.951 401.28 269.714 401.755 269.163 401.831 268.451L402.306 263.944 402.382 263.867 406.339 263.944 406.813 268.451C406.889 269.163 407.364 269.714 407.999 269.951 408.474 270.112 408.872 270.265 409.347 270.502 409.982 270.815 410.694 270.739 411.245 270.265L414.88 267.418 417.65 270.265 414.803 273.747C414.405 274.298 414.253 275.01 414.566 275.645 414.803 276.043 414.964 276.518 415.117 276.992 415.354 277.628 415.905 278.102 416.617 278.178L421.201 278.729 421.124 282.686 416.617 283.161C415.905 283.237 415.354 283.711 415.117 284.347 414.956 284.821 414.803 285.22 414.566 285.694 414.405 286.406 414.49 287.118 414.88 287.668Z" fill="#2AACE2" fill-rule="nonzero" fill-opacity="1"/><path d="M387.673 260.385C392.494 256.513 398.272 254.454 404.356 254.454 409.652 254.454 414.719 256.038 419.142 258.962L414.871 259.75C414.159 259.91 413.685 260.622 413.846 261.334 414.007 261.969 414.558 262.444 415.193 262.444L415.43 262.444 422.861 261.02C423.573 260.859 424.047 260.148 423.887 259.436L422.463 252.005C422.302 251.293 421.59 250.819 420.879 250.98 420.167 251.141 419.692 251.853 419.853 252.564L420.641 256.835C415.82 253.59 410.126 251.853 404.348 251.853 397.705 251.853 391.138 254.225 385.919 258.419 385.368 258.894 385.283 259.766 385.758 260.317 386.232 260.792 387.02 260.868 387.656 260.393Z" fill="#E31837" fill-rule="nonzero" fill-opacity="1"/><path d="M421.362 301.191C416.54 305.064 410.762 307.122 404.678 307.122 399.382 307.122 394.315 305.538 389.892 302.615L394.163 301.827C394.875 301.666 395.349 300.954 395.188 300.242 395.027 299.531 394.315 299.056 393.604 299.217L386.173 300.641C385.461 300.802 384.987 301.513 385.148 302.225L386.571 309.656C386.732 310.291 387.283 310.766 387.918 310.766L388.156 310.766C388.867 310.605 389.342 309.893 389.181 309.181L388.393 304.911C393.214 308.156 398.908 309.893 404.686 309.893 411.329 309.893 417.896 307.521 423.115 303.327 423.666 302.852 423.751 301.979 423.276 301.429 422.802 300.793 422.014 300.717 421.378 301.191Z" fill="#E31837" fill-rule="nonzero" fill-opacity="1"/></g></g></g></g></g></svg>