<svg width="96" height="97" xmlns="http://www.w3.org/2000/svg" xmlns:xlink="http://www.w3.org/1999/xlink" xml:space="preserve" overflow="hidden"><g transform="translate(-652 -125)"><g><g><g><g><path d="M700 222C673.53 222 652 200.47 652 174 652 147.53 673.53 126 700 126 726.47 126 748 147.53 748 174 748 200.47 726.47 222 700 222ZM700 129.389C675.403 129.389 655.389 149.403 655.389 174 655.389 198.597 675.403 218.611 700 218.611 724.597 218.611 744.611 198.597 744.611 174 744.611 149.403 724.597 129.389 700 129.389Z" fill="#E31837" fill-rule="nonzero" fill-opacity="1"/><path d="M690.536 197.386C676.258 197.386 664.684 185.811 664.684 171.594 664.684 157.376 676.258 145.802 690.476 145.802 697.365 145.802 703.847 148.488 708.71 153.36 710.922 155.571 712.71 158.155 714.014 161.062 714.506 162.146 714.023 163.417 712.938 163.909 711.854 164.392 710.583 163.917 710.091 162.832 708.99 160.409 707.499 158.24 705.66 156.401 701.601 152.334 696.204 150.106 690.468 150.106 678.614 150.106 668.972 159.748 668.972 171.602 668.972 183.456 678.614 193.098 690.468 193.098 691.654 193.098 692.645 194.064 692.645 195.25 692.645 196.437 691.705 197.403 690.519 197.403Z" fill="#2AACE2" fill-rule="nonzero" fill-opacity="1"/><path d="M689.154 187.269C689.087 187.269 689.019 187.269 688.951 187.26 680.825 186.489 674.699 179.753 674.699 171.594 674.699 162.9 681.766 155.834 690.459 155.834 694.654 155.834 698.61 157.461 701.61 160.435 702.593 161.417 703.449 162.544 704.152 163.79 704.736 164.824 704.372 166.137 703.338 166.713 702.305 167.289 700.991 166.933 700.415 165.9 699.907 164.993 699.288 164.18 698.593 163.476 696.416 161.324 693.527 160.13 690.476 160.13 684.155 160.13 679.012 165.273 679.012 171.594 679.012 177.525 683.469 182.431 689.366 182.981 690.544 183.092 691.417 184.142 691.307 185.32 691.196 186.43 690.264 187.269 689.171 187.269L689.171 187.269Z" fill="#2AACE2" fill-rule="nonzero" fill-opacity="1"/><path d="M690.51 173.737C689.959 173.737 689.409 173.526 688.993 173.11 688.155 172.271 688.155 170.907 688.993 170.068L707.626 151.436C708.465 150.597 709.829 150.597 710.668 151.436 711.506 152.275 711.506 153.639 710.668 154.478L692.035 173.11C691.612 173.534 691.061 173.737 690.51 173.737Z" fill="#E31837" fill-rule="nonzero" fill-opacity="1"/><path d="M717.022 154.393 709.854 154.393C708.668 154.393 707.702 153.427 707.702 152.241L707.702 145.073C707.702 144.505 707.931 143.954 708.329 143.556L714.057 137.828C714.675 137.218 715.599 137.032 716.395 137.362 717.2 137.693 717.726 138.481 717.726 139.345L717.726 144.361 722.742 144.361C723.606 144.361 724.394 144.886 724.724 145.691 725.055 146.496 724.877 147.42 724.258 148.03L718.531 153.758C718.132 154.165 717.582 154.385 717.014 154.385ZM712.006 150.097 716.133 150.097 717.565 148.665 715.59 148.665C714.404 148.665 713.438 147.7 713.438 146.513L713.438 144.539 712.006 145.971 712.006 150.097Z" fill="#E31837" fill-rule="nonzero" fill-opacity="1"/><path d="M714.87 205.977C704.601 205.977 696.238 197.623 696.238 187.345 696.238 177.067 704.592 168.713 714.87 168.713 725.148 168.713 733.503 177.067 733.503 187.345 733.503 197.623 725.148 205.977 714.87 205.977ZM714.87 173.017C706.965 173.017 700.542 179.448 700.542 187.345 700.542 195.242 706.973 201.673 714.87 201.673 722.767 201.673 729.198 195.242 729.198 187.345 729.198 179.448 722.767 173.017 714.87 173.017Z" fill="#2AACE2" fill-rule="nonzero" fill-opacity="1"/><path d="M712.006 194.513C711.506 194.513 711.015 194.344 710.608 193.996L705.592 189.701C704.694 188.93 704.584 187.574 705.363 186.667 706.143 185.761 707.49 185.659 708.397 186.438L711.845 189.396 719.751 180.88C720.556 180.007 721.92 179.957 722.793 180.762 723.665 181.566 723.716 182.931 722.911 183.803L713.599 193.835C713.176 194.293 712.599 194.522 712.023 194.522Z" fill="#E31837" fill-rule="nonzero" fill-opacity="1"/></g></g></g></g></g></svg>