<?xml version="1.0" encoding="utf-8"?>
<!-- Generator: Adobe Illustrator 26.0.1, SVG Export Plug-In . SVG Version: 6.00 Build 0)  -->
<svg version="1.1" xmlns="http://www.w3.org/2000/svg" xmlns:xlink="http://www.w3.org/1999/xlink" x="0px" y="0px"
	 viewBox="0 0 1147 445" style="enable-background:new 0 0 1147 445;" xml:space="preserve">
<style type="text/css">
	.st0{display:none;}
	.st1{display:inline;fill:#000040;}
	.st2{fill:#2AACE3;}
	.st3{fill:#3FB4E5;}
	.st4{fill:#4CB9E7;}
	.st5{fill:#59BEE9;}
	.st6{fill:#65C3EA;}
	.st7{fill:#72C8EC;}
	.st8{fill:#7FCDEE;}
	.st9{fill:#8CD2F0;}
	.st10{fill:#99D7F1;}
	.st11{fill:#A5DCF3;}
	.st12{fill:#B2E1F5;}
	.st13{fill:#BFE6F6;}
	.st14{fill:#E31837;}
</style>
<g id="Layer_2" class="st0">
	<rect x="-61.4" y="-29.3" class="st1" width="1237" height="516"/>
</g>
<g id="Layer_1">
	<g>
		<g>
			<path class="st2" d="M1063,337.9h-16.3c-4,0-6,2.2-6,6.8c0,4.5,2,6.7,6,6.7h16.3h0.1h46.5c4,0,6-2.2,6-6.7c0-4.5-2-6.7-6-6.7
				h-46.5L1063,337.9z"/>
			<path class="st3" d="M969.1,337.9h-16.3c-4,0-6,2.2-6,6.8c0,4.5,2,6.7,6,6.7h16.3h0.1h46.5c4,0,6-2.2,6-6.7c0-4.5-2-6.7-6-6.7
				h-46.5L969.1,337.9z"/>
			<path class="st4" d="M875.2,337.9h-16.3c-4,0-6,2.2-6,6.8c0,4.5,2,6.7,6,6.7h16.3h0.1h46.5c4,0,6-2.2,6-6.7c0-4.5-2-6.7-6-6.7
				h-46.5L875.2,337.9z"/>
			<path class="st5" d="M778.7,337.9h-16.3c-4,0-6,2.2-6,6.8c0,4.5,2,6.7,6,6.7h16.3h0.1h46.5c4,0,6-2.2,6-6.7c0-4.5-2-6.7-6-6.7
				h-46.5L778.7,337.9z"/>
			<path class="st6" d="M684.8,337.9h-16.3c-4,0-6,2.2-6,6.8c0,4.5,2,6.7,6,6.7h16.3h0.1h46.5c4,0,6-2.2,6-6.7c0-4.5-2-6.7-6-6.7
				h-46.5L684.8,337.9z"/>
			<path class="st7" d="M590.9,337.9h-16.3c-4,0-6,2.2-6,6.8c0,4.5,2,6.7,6,6.7h16.3h0.1h46.5c4,0,6-2.2,6-6.7c0-4.5-2-6.7-6-6.7
				H591L590.9,337.9z"/>
			<path class="st8" d="M494.4,337.9h-16.3c-4,0-6,2.2-6,6.8c0,4.5,2,6.7,6,6.7h16.3h0.1h46.5c4,0,6-2.2,6-6.7c0-4.5-2-6.7-6-6.7
				h-46.5L494.4,337.9z"/>
			<path class="st9" d="M400.5,337.9h-16.3c-4,0-6,2.2-6,6.8c0,4.5,2,6.7,6,6.7h16.3h0.1h46.5c4,0,6-2.2,6-6.7c0-4.5-2-6.7-6-6.7
				h-46.5L400.5,337.9z"/>
			<path class="st10" d="M306.6,337.9h-16.3c-4,0-6,2.2-6,6.8c0,4.5,2,6.7,6,6.7h16.3h0.1h46.5c4,0,6-2.2,6-6.7c0-4.5-2-6.7-6-6.7
				h-46.5L306.6,337.9z"/>
			<path class="st11" d="M210.1,337.9h-16.3c-4,0-6,2.2-6,6.8c0,4.5,2,6.7,6,6.7h16.3h0.1h46.5c4,0,6-2.2,6-6.7c0-4.5-2-6.7-6-6.7
				h-46.5L210.1,337.9z"/>
			<path class="st12" d="M116.2,337.9H99.9c-4,0-6,2.2-6,6.8c0,4.5,2,6.7,6,6.7h16.3h0.1h46.5c4,0,6-2.2,6-6.7c0-4.5-2-6.7-6-6.7
				h-46.5L116.2,337.9z"/>
			<path class="st13" d="M22.3,337.9H6c-4,0-6,2.2-6,6.8c0,4.5,2,6.7,6,6.7h16.3h0.1h46.5c4,0,6-2.2,6-6.7c0-4.5-2-6.7-6-6.7H22.4
				L22.3,337.9z"/>
			<g>
				<path class="st14" d="M0.8,145.6h17.4v23.3c6-8.6,12.2-14.9,18.6-18.8c8.8-5.3,18-7.9,27.7-7.9c6.5,0,12.7,1.3,18.6,3.8
					c5.9,2.6,10.7,6,14.4,10.2c3.7,4.3,7,10.4,9.7,18.3c5.8-10.6,13-18.6,21.6-24.1c8.7-5.5,18-8.2,27.9-8.2
					c9.3,0,17.5,2.4,24.7,7.1c7.1,4.7,12.4,11.3,15.9,19.7c3.5,8.4,5.2,21.1,5.2,37.9v73.6h-17.7v-73.6c0-14.5-1-24.4-3.1-29.8
					c-2.1-5.4-5.6-9.8-10.6-13.1c-5-3.3-10.9-4.9-17.9-4.9c-8.4,0-16.1,2.5-23,7.4c-7,5-12,11.6-15.2,19.8
					c-3.2,8.3-4.8,22.1-4.8,41.4v52.8H92.7v-69c0-16.3-1-27.3-3-33.1c-2-5.8-5.6-10.5-10.6-14c-5-3.5-11-5.3-18-5.3
					c-8,0-15.5,2.4-22.5,7.2c-7,4.8-12.2,11.3-15.5,19.5c-3.3,8.2-5,20.7-5,37.6v57.1H0.8V145.6z"/>
				<path class="st14" d="M302.8,142.1c20.8,0,38,7.5,51.6,22.6c12.4,13.7,18.6,29.9,18.6,48.7c0,18.8-6.6,35.3-19.7,49.4
					c-13.1,14.1-30,21.1-50.6,21.1c-20.7,0-37.6-7-50.7-21.1c-13.1-14.1-19.7-30.5-19.7-49.4c0-18.7,6.2-34.9,18.6-48.6
					C264.6,149.7,281.9,142.1,302.8,142.1z M302.7,159.1c-14.4,0-26.8,5.3-37.2,16c-10.4,10.6-15.6,23.5-15.6,38.6
					c0,9.8,2.4,18.8,7.1,27.3c4.7,8.4,11.1,14.9,19.1,19.5c8,4.6,16.9,6.9,26.5,6.9c9.6,0,18.4-2.3,26.5-6.9
					c8-4.6,14.4-11.1,19.1-19.5c4.7-8.4,7.1-17.5,7.1-27.3c0-15.1-5.2-28-15.6-38.6C329.4,164.4,317,159.1,302.7,159.1z"/>
				<path class="st14" d="M539.7,93.6v186.8h-17.1v-23.2c-7.3,8.8-15.4,15.5-24.5,19.9c-9,4.5-18.9,6.7-29.7,6.7
					c-19.1,0-35.4-6.9-48.9-20.8c-13.5-13.8-20.3-30.7-20.3-50.5c0-19.4,6.8-36,20.5-49.8c13.6-13.8,30-20.7,49.2-20.7
					c11.1,0,21.1,2.4,30.1,7.1c9,4.7,16.8,11.8,23.6,21.2V93.6H539.7z M470.3,158.9c-9.7,0-18.6,2.4-26.7,7.1
					c-8.2,4.8-14.7,11.4-19.5,20c-4.8,8.6-7.2,17.7-7.2,27.2c0,9.5,2.4,18.6,7.3,27.2c4.9,8.7,11.4,15.4,19.6,20.2
					c8.2,4.8,17,7.2,26.4,7.2c9.5,0,18.5-2.4,27-7.2c8.5-4.8,15-11.3,19.6-19.4c4.6-8.2,6.9-17.4,6.9-27.6
					c0-15.6-5.2-28.6-15.4-39.1C498,164.1,485.3,158.9,470.3,158.9z"/>
				<path class="st14" d="M692.4,235.7l14.6,7.7c-4.8,9.4-10.3,17-16.6,22.8c-6.3,5.8-13.4,10.2-21.2,13.2c-7.9,3-16.7,4.5-26.7,4.5
					c-22,0-39.2-7.2-51.6-21.6c-12.4-14.4-18.6-30.7-18.6-48.9c0-17.1,5.2-32.3,15.7-45.7c13.3-17,31.1-25.5,53.5-25.5
					c23,0,41.3,8.7,55.1,26.1c9.8,12.3,14.7,27.7,14.9,46.1H590.2c0.3,15.6,5.3,28.5,15,38.5c9.7,10,21.6,15,35.8,15
					c6.9,0,13.5-1.2,20-3.6c6.5-2.4,12-5.5,16.6-9.5C682.2,250.9,687.1,244.5,692.4,235.7z M692.4,199.4
					c-2.3-9.2-5.7-16.6-10.1-22.2c-4.4-5.5-10.3-10-17.6-13.4c-7.3-3.4-14.9-5.1-22.9-5.1c-13.2,0-24.6,4.2-34.1,12.8
					c-7,6.2-12.2,15.5-15.8,27.9H692.4z"/>
				<path class="st14" d="M737.3,145.6H755v19.7c5.3-7.8,10.9-13.6,16.7-17.4c5.8-3.8,12-5.8,18.3-5.8c4.8,0,9.9,1.5,15.4,4.6
					l-9,14.6c-3.6-1.6-6.7-2.3-9.2-2.3c-5.8,0-11.4,2.4-16.7,7.1c-5.4,4.8-9.5,12.1-12.3,22.1c-2.1,7.7-3.2,23.2-3.2,46.6v45.6
					h-17.7V145.6z"/>
				<path class="st14" d="M825.5,145.6h17.3v24.2c6.9-9.2,14.6-16.2,23-20.8c8.4-4.6,17.6-6.9,27.5-6.9c10.1,0,19,2.6,26.8,7.7
					c7.8,5.1,13.6,12,17.3,20.7c3.7,8.7,5.6,22.2,5.6,40.5v69.4h-17.4v-64.3c0-15.5-0.6-25.9-1.9-31.1c-2-8.9-5.9-15.6-11.6-20.1
					c-5.7-4.5-13.2-6.8-22.3-6.8c-10.5,0-19.9,3.5-28.2,10.4c-8.3,6.9-13.8,15.5-16.4,25.8c-1.7,6.7-2.5,18.9-2.5,36.7v49.4h-17.3
					V145.6z"/>
				<path class="st14" d="M1114.5,145.6v134.8h-17.1v-23.2c-7.3,8.8-15.4,15.5-24.5,19.9c-9,4.5-18.9,6.7-29.7,6.7
					c-19.1,0-35.4-6.9-48.9-20.8c-13.5-13.8-20.3-30.7-20.3-50.5c0-19.4,6.8-36,20.4-49.8c13.6-13.8,30-20.7,49.2-20.7
					c11.1,0,21.1,2.4,30,7.1c9,4.7,16.8,11.8,23.6,21.2v-24.8H1114.5z M1045.2,158.9c-9.6,0-18.5,2.4-26.7,7.1
					c-8.2,4.8-14.7,11.4-19.5,20c-4.8,8.6-7.2,17.7-7.2,27.2c0,9.5,2.4,18.6,7.3,27.2c4.9,8.7,11.4,15.4,19.6,20.2
					c8.2,4.8,17,7.2,26.4,7.2c9.5,0,18.5-2.4,27-7.2c8.5-4.8,15-11.3,19.6-19.4c4.6-8.2,6.9-17.4,6.9-27.6
					c0-15.6-5.1-28.6-15.4-39.1C1072.9,164.1,1060.2,158.9,1045.2,158.9z"/>
			</g>
		</g>
		<g>
			<path class="st14" d="M1136.3,146.1c1.8,0,3.6,0.5,5.3,1.4c1.7,0.9,3,2.2,4,4c1,1.7,1.4,3.5,1.4,5.4c0,1.8-0.5,3.6-1.4,5.3
				s-2.3,3-4,4c-1.7,0.9-3.5,1.4-5.3,1.4s-3.6-0.5-5.3-1.4s-3-2.3-4-4c-0.9-1.7-1.4-3.5-1.4-5.3c0-1.9,0.5-3.7,1.4-5.4
				c1-1.7,2.3-3,4-4C1132.8,146.5,1134.5,146.1,1136.3,146.1z M1136.3,147.8c-1.5,0-3,0.4-4.4,1.2c-1.4,0.8-2.5,1.9-3.3,3.3
				c-0.8,1.4-1.2,2.9-1.2,4.5c0,1.5,0.4,3,1.2,4.4s1.9,2.5,3.3,3.3c1.4,0.8,2.9,1.2,4.4,1.2c1.5,0,3-0.4,4.4-1.2
				c1.4-0.8,2.5-1.9,3.3-3.3c0.8-1.4,1.2-2.9,1.2-4.4c0-1.6-0.4-3-1.2-4.5c-0.8-1.4-1.9-2.5-3.3-3.3
				C1139.3,148.2,1137.8,147.8,1136.3,147.8z M1131.6,162.7v-11.5h4c1.4,0,2.3,0.1,2.9,0.3c0.6,0.2,1.1,0.6,1.4,1.1s0.5,1.1,0.5,1.7
				c0,0.8-0.3,1.6-0.9,2.2s-1.4,1-2.4,1c0.4,0.2,0.7,0.4,1,0.6c0.5,0.5,1,1.2,1.7,2.3l1.4,2.3h-2.3l-1-1.8c-0.8-1.4-1.5-2.3-1.9-2.7
				c-0.3-0.3-0.8-0.4-1.5-0.4h-1.1v4.9H1131.6z M1133.5,156.2h2.3c1.1,0,1.8-0.2,2.2-0.5s0.6-0.7,0.6-1.3c0-0.3-0.1-0.6-0.3-0.9
				c-0.2-0.3-0.5-0.5-0.8-0.6c-0.3-0.1-1-0.2-1.9-0.2h-2.1V156.2z"/>
		</g>
	</g>
</g>
</svg>
