<svg width="97" height="97" xmlns="http://www.w3.org/2000/svg" xmlns:xlink="http://www.w3.org/1999/xlink" xml:space="preserve" overflow="hidden"><g transform="translate(-460 -205)"><g><g><g><g><path d="M509 302C482.53 302 461 280.47 461 254 461 227.53 482.53 206 509 206 535.47 206 557 227.53 557 254 557 280.47 535.47 302 509 302ZM509 209.389C484.403 209.389 464.389 229.403 464.389 254 464.389 278.597 484.403 298.611 509 298.611 533.597 298.611 553.611 278.597 553.611 254 553.611 229.403 533.597 209.389 509 209.389Z" fill="#E31837" fill-rule="nonzero" fill-opacity="1"/><path d="M486.487 253.026 477.972 253.026C477.082 253.026 476.226 253.381 475.591 254.008 474.955 254.635 474.608 255.491 474.599 256.389L474.599 279.318C474.599 280.207 474.955 281.063 475.591 281.698 476.226 282.334 477.073 282.681 477.972 282.69L486.487 282.69C487.377 282.69 488.232 282.334 488.868 281.707 489.503 281.08 489.859 280.216 489.859 279.326L489.859 256.398C489.859 255.508 489.503 254.652 488.876 254.017 488.241 253.39 487.385 253.034 486.496 253.034ZM486.758 279.326C486.758 279.479 486.64 279.597 486.487 279.597L477.972 279.597C477.904 279.597 477.828 279.572 477.777 279.521 477.726 279.47 477.7 279.402 477.7 279.326L477.7 256.398C477.7 256.245 477.819 256.127 477.972 256.127L486.487 256.127C486.64 256.127 486.758 256.245 486.758 256.398L486.758 279.326Z" fill="#2AACE2" fill-rule="nonzero" fill-opacity="1"/><path d="M504.374 239.308 495.858 239.308C494.969 239.308 494.113 239.664 493.477 240.291 492.842 240.918 492.486 241.773 492.486 242.671L492.486 279.318C492.486 280.207 492.842 281.063 493.477 281.698 494.113 282.334 494.96 282.681 495.858 282.69L504.374 282.69C505.263 282.69 506.128 282.334 506.755 281.707 507.39 281.08 507.746 280.216 507.746 279.326L507.746 242.68C507.746 241.79 507.39 240.935 506.755 240.299 506.119 239.664 505.272 239.316 504.374 239.316ZM504.645 279.326C504.645 279.479 504.526 279.597 504.374 279.597L495.858 279.597C495.706 279.597 495.587 279.479 495.587 279.326L495.587 242.68C495.587 242.527 495.706 242.409 495.858 242.409L504.374 242.409C504.526 242.409 504.645 242.527 504.645 242.68L504.645 279.326Z" fill="#2AACE2" fill-rule="nonzero" fill-opacity="1"/><path d="M522.252 249.899 513.736 249.899C512.847 249.899 511.991 250.255 511.356 250.882 510.72 251.509 510.364 252.373 510.364 253.263L510.364 279.318C510.364 280.207 510.72 281.063 511.356 281.698 511.991 282.334 512.847 282.681 513.736 282.681L522.252 282.681C523.142 282.681 523.997 282.326 524.633 281.698 525.268 281.072 525.616 280.207 525.624 279.318L525.624 253.263C525.624 252.373 525.268 251.517 524.641 250.882 524.014 250.255 523.159 249.899 522.26 249.899ZM522.523 279.318C522.523 279.462 522.404 279.589 522.252 279.589L513.736 279.589C513.584 279.589 513.465 279.47 513.465 279.318L513.465 253.263C513.465 253.195 513.491 253.119 513.542 253.068 513.592 253.017 513.66 252.992 513.736 252.992L522.252 252.992C522.404 252.992 522.523 253.11 522.523 253.263L522.523 279.318Z" fill="#2AACE2" fill-rule="nonzero" fill-opacity="1"/><path d="M535.885 225.937C533.708 225.937 531.632 226.852 530.183 228.479 528.734 230.106 528.056 232.267 528.31 234.427L524.59 235.656C523.379 233.546 521.235 232.148 518.82 231.885 516.405 231.623 514.008 232.529 512.372 234.334L507.322 231.343C508.153 228.937 507.729 226.268 506.187 224.243 504.645 222.217 502.196 221.091 499.654 221.243 497.112 221.396 494.816 222.811 493.528 225.005 492.24 227.2 492.139 229.903 493.257 232.19L487.207 236.834C485.275 235.164 482.64 234.563 480.175 235.232 477.709 235.902 475.743 237.757 474.93 240.18 474.116 242.604 474.557 245.264 476.108 247.298 477.658 249.323 480.124 250.441 482.674 250.289 485.225 250.128 487.521 248.713 488.817 246.51 490.105 244.307 490.215 241.604 489.097 239.308L495.147 234.664C496.646 235.969 498.595 236.63 500.578 236.512 502.56 236.393 504.416 235.503 505.746 234.029L510.796 237.02C510.068 239.138 510.313 241.468 511.457 243.392 512.601 245.315 514.541 246.637 516.753 247.01 518.964 247.374 521.227 246.756 522.93 245.307 524.641 243.858 525.624 241.731 525.624 239.494 525.624 239.206 525.607 238.909 525.573 238.621L529.293 237.393C530.191 238.943 531.606 240.13 533.284 240.748 534.962 241.367 536.817 241.358 538.503 240.748 540.189 240.138 541.604 238.952 542.494 237.393 543.392 235.842 543.714 234.02 543.401 232.258 543.087 230.496 542.164 228.894 540.791 227.742 539.418 226.59 537.681 225.963 535.885 225.963ZM482.225 247.12C481.022 247.12 479.87 246.645 479.022 245.79 478.175 244.942 477.692 243.79 477.692 242.587 477.692 241.384 478.166 240.231 479.022 239.384 479.87 238.537 481.022 238.054 482.225 238.054 483.428 238.054 484.581 238.528 485.428 239.384 486.275 240.231 486.758 241.384 486.75 242.587 486.75 243.79 486.267 244.942 485.419 245.79 484.572 246.637 483.42 247.12 482.217 247.12ZM500.112 233.402C498.909 233.402 497.756 232.927 496.909 232.072 496.062 231.224 495.579 230.072 495.579 228.869 495.579 227.666 496.053 226.513 496.909 225.666 497.756 224.819 498.909 224.336 500.112 224.336 501.315 224.336 502.467 224.81 503.315 225.666 504.162 226.513 504.645 227.666 504.645 228.869 504.645 230.072 504.162 231.224 503.315 232.072 502.467 232.919 501.315 233.402 500.112 233.402ZM517.998 243.993C516.795 243.993 515.643 243.519 514.796 242.663 513.948 241.816 513.465 240.663 513.465 239.46 513.465 238.257 513.94 237.105 514.796 236.257 515.643 235.41 516.795 234.927 517.998 234.936 519.202 234.944 520.354 235.41 521.201 236.266 522.049 237.113 522.523 238.265 522.523 239.469 522.523 240.672 522.04 241.816 521.193 242.671 520.345 243.519 519.193 243.993 517.99 244.002ZM535.885 238.088C534.682 238.088 533.53 237.613 532.682 236.757 531.835 235.91 531.352 234.758 531.352 233.554 531.352 232.351 531.826 231.199 532.682 230.352 533.53 229.504 534.682 229.021 535.885 229.021 537.088 229.021 538.241 229.496 539.088 230.352 539.935 231.199 540.418 232.351 540.418 233.554 540.418 234.758 539.944 235.91 539.088 236.757 538.232 237.605 537.088 238.088 535.885 238.088Z" fill="#E31837" fill-rule="nonzero" fill-opacity="1"/><path d="M540.139 243.993 531.623 243.993C530.733 243.993 529.869 244.349 529.242 244.976 528.607 245.612 528.251 246.467 528.251 247.357L528.251 279.318C528.251 280.207 528.607 281.063 529.234 281.698 529.861 282.326 530.716 282.681 531.615 282.69L540.13 282.69C541.02 282.69 541.884 282.334 542.511 281.707 543.146 281.08 543.502 280.216 543.502 279.326L543.502 247.366C543.502 246.476 543.146 245.62 542.52 244.985 541.893 244.349 541.037 244.002 540.139 243.993ZM540.41 279.326C540.41 279.479 540.291 279.597 540.139 279.597L531.623 279.597C531.471 279.597 531.352 279.479 531.352 279.326L531.352 247.366C531.352 247.213 531.471 247.094 531.623 247.094L540.139 247.094C540.206 247.094 540.283 247.12 540.325 247.171 540.376 247.222 540.401 247.289 540.401 247.357L540.401 279.318Z" fill="#2AACE2" fill-rule="nonzero" fill-opacity="1"/></g></g></g></g></g></svg>